<?xml version="1.0" encoding="UTF-8" standalone="no"?>
<svg
   width="95.332283"
   height="95.31028"
   overflow="hidden"
   version="1.1"
   id="svg165"
   sodipodi:docname="ico.svg"
   inkscape:version="1.1.2 (0a00cf5339, 2022-02-04)"
   xmlns:inkscape="http://www.inkscape.org/namespaces/inkscape"
   xmlns:sodipodi="http://sodipodi.sourceforge.net/DTD/sodipodi-0.dtd"
   xmlns="http://www.w3.org/2000/svg"
   xmlns:svg="http://www.w3.org/2000/svg">
  <sodipodi:namedview
     id="namedview167"
     pagecolor="#ffffff"
     bordercolor="#666666"
     borderopacity="1.0"
     inkscape:pageshadow="2"
     inkscape:pageopacity="0.0"
     inkscape:pagecheckerboard="0"
     showgrid="false"
     inkscape:zoom="1.28"
     inkscape:cx="194.14063"
     inkscape:cy="-49.21875"
     inkscape:window-width="1920"
     inkscape:window-height="1003"
     inkscape:window-x="0"
     inkscape:window-y="0"
     inkscape:window-maximized="1"
     inkscape:current-layer="g163" />
  <defs
     id="defs59">
    <clipPath
       id="clip0">
      <rect
         x="0"
         y="0"
         width="1058"
         height="595"
         id="rect2" />
    </clipPath>
    <clipPath
       id="clip1">
      <path
         d="m 407.166,167.171 43.388,12.269 -12.272,43.378 -43.388,-12.269 z"
         fill-rule="evenodd"
         clip-rule="evenodd"
         id="path5" />
    </clipPath>
    <clipPath
       id="clip2">
      <path
         d="m 407.166,167.171 43.388,12.269 -12.272,43.378 -43.388,-12.269 z"
         fill-rule="evenodd"
         clip-rule="evenodd"
         id="path8" />
    </clipPath>
    <clipPath
       id="clip3">
      <path
         d="m 407.166,167.171 43.388,12.269 -12.272,43.378 -43.388,-12.269 z"
         fill-rule="evenodd"
         clip-rule="evenodd"
         id="path11" />
    </clipPath>
    <clipPath
       id="clip4">
      <path
         d="m 418.916,210.122 -17.78,-42.074 -42.085,17.775 17.78,42.075 z"
         fill-rule="evenodd"
         clip-rule="evenodd"
         id="path14" />
    </clipPath>
    <clipPath
       id="clip5">
      <path
         d="m 418.916,210.122 -17.78,-42.074 -42.085,17.775 17.78,42.075 z"
         fill-rule="evenodd"
         clip-rule="evenodd"
         id="path17" />
    </clipPath>
    <clipPath
       id="clip6">
      <path
         d="m 418.916,210.122 -17.78,-42.074 -42.085,17.775 17.78,42.075 z"
         fill-rule="evenodd"
         clip-rule="evenodd"
         id="path20" />
    </clipPath>
    <clipPath
       id="clip7">
      <rect
         x="626"
         y="182"
         width="24"
         height="23"
         id="rect23" />
    </clipPath>
    <clipPath
       id="clip8">
      <rect
         x="626"
         y="182"
         width="24"
         height="23"
         id="rect26" />
    </clipPath>
    <clipPath
       id="clip9">
      <rect
         x="626"
         y="182"
         width="24"
         height="23"
         id="rect29" />
    </clipPath>
    <clipPath
       id="clip10">
      <path
         d="m 633.396,191.717 36.529,9.651 -9.653,36.521 -36.53,-9.652 z"
         fill-rule="evenodd"
         clip-rule="evenodd"
         id="path32" />
    </clipPath>
    <clipPath
       id="clip11">
      <path
         d="m 633.396,191.717 36.529,9.651 -9.653,36.521 -36.53,-9.652 z"
         fill-rule="evenodd"
         clip-rule="evenodd"
         id="path35" />
    </clipPath>
    <clipPath
       id="clip12">
      <path
         d="m 633.396,191.717 36.529,9.651 -9.653,36.521 -36.53,-9.652 z"
         fill-rule="evenodd"
         clip-rule="evenodd"
         id="path38" />
    </clipPath>
    <clipPath
       id="clip13">
      <path
         d="m 346.322,319.502 53.535,-14.811 14.815,53.521 -53.534,14.812 z"
         fill-rule="evenodd"
         clip-rule="evenodd"
         id="path41" />
    </clipPath>
    <clipPath
       id="clip14">
      <path
         d="m 346.322,319.502 53.535,-14.811 14.815,53.521 -53.534,14.812 z"
         fill-rule="evenodd"
         clip-rule="evenodd"
         id="path44" />
    </clipPath>
    <clipPath
       id="clip15">
      <path
         d="m 346.322,319.502 53.535,-14.811 14.815,53.521 -53.534,14.812 z"
         fill-rule="evenodd"
         clip-rule="evenodd"
         id="path47" />
    </clipPath>
    <clipPath
       id="clip16">
      <rect
         x="372"
         y="326"
         width="81"
         height="81"
         id="rect50" />
    </clipPath>
    <clipPath
       id="clip17">
      <rect
         x="372"
         y="326"
         width="81"
         height="81"
         id="rect53" />
    </clipPath>
    <clipPath
       id="clip18">
      <rect
         x="372"
         y="326"
         width="81"
         height="81"
         id="rect56" />
    </clipPath>
  </defs>
  <g
     clip-path="url(#clip0)"
     id="g163"
     transform="translate(-355.83386,-310.75686)">
    <path
       d="m 357.5,319.438 c 0,-3.874 3.141,-7.015 7.016,-7.015 h 77.968 c 3.875,0 7.016,3.141 7.016,7.015 v 77.949 c 0,3.873 -3.141,7.014 -7.016,7.014 h -77.968 c -3.875,0 -7.016,-3.141 -7.016,-7.014 z"
       stroke="#0072b2"
       stroke-width="3.33228"
       stroke-miterlimit="8"
       fill="#ffffff"
       fill-rule="evenodd"
       id="path133" />
    <g
       clip-path="url(#clip13)"
       id="g141">
      <g
         clip-path="url(#clip14)"
         id="g139">
        <g
           clip-path="url(#clip15)"
           id="g137">
          <path
             d="m 48.3062,24.2954 c 1.4377,0.0019 2.6047,-1.162 2.6067,-2.5997 0.0019,-1.4376 -1.1619,-2.6047 -2.5996,-2.6066 -1.2207,-0.0017 -2.2786,0.8451 -2.5443,2.0365 l -4.4829,1.4943 c -0.6992,-1.8321 -1.7637,-3.503 -3.1287,-4.911 l 4.0195,-4.7184 c 1.9096,0.8381 4.1372,-0.0306 4.9753,-1.9402 C 47.9903,9.14058 47.1217,6.91304 45.212,6.07494 43.3023,5.23678 41.0748,6.10543 40.2366,8.0151 c -0.4887,1.11345 -0.4112,2.3941 0.2081,3.4407 l -4.022,4.7214 C 34.2168,14.5271 31.5836,13.5449 28.8359,13.3475 L 28.7684,11.2539 C 30.1947,10.5404 30.7725,8.80564 30.059,7.37929 29.3455,5.95294 27.6107,5.37512 26.1844,6.08865 24.758,6.8022 24.1802,8.53694 24.8937,9.96329 c 0.3252,0.64991 0.8834,1.15341 1.5634,1.40991 l 0.0641,1.9883 c -2.819,0.2402 -5.5045,1.3064 -7.7207,3.0649 L 16.2976,13.696 C 17.3213,11.8793 16.6784,9.57675 14.8617,8.55302 13.045,7.52935 10.7424,8.17221 9.71871,9.98892 8.69504,11.8056 9.3379,14.1082 11.1546,15.1319 c 1.0591,0.5968 2.3409,0.6471 3.4436,0.1352 l 2.5063,2.734 c -2.2746,2.4769 -3.611,5.6716 -3.7776,9.0303 L 11.3821,26.9789 C 10.7847,25.3295 8.96322,24.4766 7.31381,25.074 c -1.64949,0.5974 -2.50235,2.4188 -1.90495,4.0683 0.59741,1.6495 2.41887,2.5023 4.06828,1.9049 0.83326,-0.3018 1.50256,-0.938 1.84626,-1.7549 l 2.0728,0.0561 c 0.2667,2.4518 1.1597,4.7937 2.5932,6.8006 l -4.9572,3.6778 c -1.6523,-0.9871 -3.79198,-0.4479 -4.77915,1.2044 -0.98715,1.6523 -0.44791,3.792 1.20439,4.7791 1.65231,0.9872 3.79196,0.448 4.77916,-1.2043 0.5411,-0.9057 0.6428,-2.0077 0.2766,-2.9972 l 4.9661,-3.6845 c 1.8587,1.8861 4.2002,3.2248 6.7686,3.8697 l -0.9298,3.3469 c -2.2273,0.2206 -3.8539,2.2051 -3.6333,4.4324 0.2206,2.2273 2.2051,3.854 4.4324,3.6333 2.2272,-0.2206 3.854,-2.2051 3.6334,-4.4324 -0.1347,-1.3586 -0.9444,-2.5582 -2.1541,-3.1912 l 0.9473,-3.4104 c 0.4048,0.0341 0.813,0.0556 1.2265,0.0556 2.3276,0.0024 4.6211,-0.5597 6.6838,-1.6382 l 3.0783,4.8372 c -0.9621,1.4861 -0.5372,3.4708 0.949,4.4329 1.4861,0.962 3.4708,0.5372 4.4329,-0.949 0.9621,-1.4862 0.5372,-3.4709 -0.949,-4.4329 -0.7562,-0.4896 -1.6834,-0.6383 -2.5548,-0.4099 l -2.9956,-4.7074 c 2.1184,-1.5823 3.7641,-3.7137 4.7589,-6.1635 l 3.381,1.0492 c -0.003,0.0573 -0.0087,0.114 -0.0087,0.1721 -0.0033,1.7605 1.4212,3.1903 3.1817,3.1936 1.7604,0.0033 3.1903,-1.4211 3.1936,-3.1816 0.0033,-1.7605 -1.4212,-3.1903 -3.1817,-3.1936 -0.825,-0.0016 -1.6184,0.3168 -2.2136,0.8882 l -3.659,-1.1357 c 0.4622,-2.0205 0.4858,-4.1167 0.0692,-6.1472 l 4.3997,-1.4665 c 0.4897,0.5812 1.2103,0.9174 1.9702,0.9195 z M 26.6133,34.708 c -0.9585,0 -1.7354,-0.777 -1.7354,-1.7355 0,-0.9585 0.7769,-1.7354 1.7354,-1.7354 0.9584,0 1.7355,0.7769 1.7355,1.7354 0,0.9585 -0.7771,1.7355 -1.7355,1.7355 z m 3.7601,-7.5203 c -1.1182,0 -2.0246,-0.9064 -2.0246,-2.0246 0,-1.1182 0.9064,-2.0247 2.0246,-2.0247 1.1182,0 2.0247,0.9065 2.0247,2.0247 0,1.1181 -0.9065,2.0246 -2.0246,2.0246 -10e-5,0 -10e-5,0 -10e-5,0 z m 3.4709,7.5203 c -1.1182,0 -2.0247,-0.9065 -2.0247,-2.0247 0,-1.1182 0.9065,-2.0247 2.0247,-2.0247 1.1182,0 2.0247,0.9065 2.0247,2.0247 0,1.1181 -0.9065,2.0246 -2.0246,2.0247 -1e-4,0 -1e-4,0 -1e-4,0 z"
             fill="#d55e00"
             transform="matrix(0.963995,-0.266711,0.266777,0.963758,346.322,319.502)"
             id="path135" />
        </g>
      </g>
    </g>
    <g
       clip-path="url(#clip16)"
       id="g161">
      <g
         clip-path="url(#clip17)"
         id="g159">
        <g
           clip-path="url(#clip18)"
           id="g157">
          <path
             d="m 68.2598,29.4379 c 1.4852,-0.3696 3.0261,-0.4605 4.5445,-0.2682 1.3672,0.1912 2.6305,-0.7621 2.8217,-2.1292 0.1909,-1.3644 -0.7582,-2.626 -2.1219,-2.8208 -1.8446,-0.2427 -3.7162,-0.1841 -5.5419,0.1732 -0.4258,-2.0489 -1.2552,-3.9925 -2.4399,-5.7175 1.0382,-0.9383 2.2653,-1.6436 3.5988,-2.0681 1.3193,-0.4059 2.0599,-1.8042 1.6541,-3.1234 -0.4058,-1.3194 -1.8042,-2.0599 -3.1235,-1.6541 -2.068,0.6526 -3.9677,1.7512 -5.565,3.2181 -1.9968,-1.5536 -4.338,-2.6043 -6.8261,-3.0633 0.3818,-1.3635 1.0327,-2.63664 1.9145,-3.74444 C 58.0468,7.16983 57.8857,5.59549 56.8154,4.72377 55.7451,3.85205 54.1707,4.01305 53.299,5.08338 51.7223,7.06548 50.6402,9.39453 50.1423,11.8778 48.1245,12.152 46.1788,12.8144 44.4129,13.8283 43.5754,12.8447 43.0265,11.6485 42.8271,10.3722 42.626,9.00663 41.356,8.06267 39.9905,8.26375 38.6249,8.46484 37.681,9.73478 37.882,11.1004 c 0.3321,2.1578 1.2491,4.1834 2.6514,5.8569 -1.96,2.1373 -3.2944,4.7725 -3.8573,7.6173 -1.2424,-0.4548 -2.3134,-1.2831 -3.0663,-2.371 -0.7487,-1.1597 -2.2957,-1.4928 -3.4554,-0.744 -1.1596,0.7486 -1.4927,2.2957 -0.744,3.4553 0.0015,0.0023 0.003,0.0047 0.0045,0.0069 1.5947,2.328 3.9707,4.0076 6.6973,4.7346 -0.6225,2.3642 -2.3157,4.3006 -4.5757,5.233 -3.0656,-0.2156 -5.8414,-1.8899 -7.4621,-4.501 -0.6997,-1.19 -2.2316,-1.5874 -3.4215,-0.8876 -1.187,0.6979 -1.586,2.2244 -0.8922,3.4139 0.8076,1.3824 1.8546,2.6102 3.0921,3.626 -1.802,0.6947 -3.4621,1.7128 -4.8981,3.0041 -1.9802,0.2275 -3.9725,-0.3109 -5.5685,-1.5049 -1.0627,-0.8811 -2.63851,-0.734 -3.51971,0.3288 -0.88112,1.0627 -0.73393,2.6385 0.32875,3.5196 1.47986,1.2116 3.23716,2.0373 5.11436,2.4031 -0.9026,1.795 -1.4549,3.7455 -1.6275,5.7472 -1.5425,0.9642 -3.3129,1.5027 -5.13113,1.5604 -1.38023,-0.0226 -2.51743,1.0781 -2.53998,2.4583 -0.02246,1.3734 1.06754,2.5076 2.44072,2.5397 0.07484,0.0012 0.14807,0.002 0.22211,0.002 1.87934,-0.0324 3.73328,-0.4399 5.45308,-1.1986 0.5141,2.0191 1.4234,3.9161 2.6751,5.5817 -0.9889,1.0655 -2.1308,1.9781 -3.3881,2.7079 -1.2018,0.6794 -1.6252,2.2043 -0.9459,3.4061 0.6794,1.2017 2.2045,1.6252 3.4062,0.9458 1.6691,-0.963 3.1875,-2.1661 4.5065,-3.5709 1.7095,1.2133 3.6437,2.0736 5.6896,2.5305 0.0347,0.22 0.099,0.4344 0.1912,0.6372 0.4652,1.257 0.4434,2.6425 -0.0611,3.8842 -0.532,1.2736 0.0692,2.7374 1.3428,3.2694 1.2735,0.5321 2.7373,-0.069 3.2693,-1.3426 0.0014,-0.0035 0.0029,-0.007 0.0043,-0.0104 0.7984,-1.9245 0.9911,-4.0468 0.5523,-6.0836 2.065,-0.0924 4.1196,-0.3459 6.1451,-0.758 0.1435,0.1597 0.3071,0.3002 0.4867,0.4179 1.5142,1.0028 2.7563,2.3654 3.6149,3.9658 0.5702,1.257 2.0514,1.8138 3.3084,1.2436 1.257,-0.5702 1.8137,-2.0514 1.2436,-3.3084 -0.0019,-0.0041 -0.0037,-0.0082 -0.0056,-0.0123 -0.7027,-1.4773 -1.6632,-2.8173 -2.8364,-3.9574 2.3608,-0.8796 4.6323,-1.9827 6.7833,-3.2943 0.1615,0.1031 0.3342,0.1872 0.5149,0.2506 1.5889,0.6176 3.0183,1.5851 4.1819,2.831 0.9158,1.033 2.4956,1.1281 3.5287,0.2123 1.0323,-0.9152 1.1281,-2.4937 0.2139,-3.5269 -1.0933,-1.2125 -2.3721,-2.2437 -3.7888,-3.0552 1.005,-0.8259 1.977,-1.692 2.8954,-2.6111 0.4931,-0.4923 0.9829,-1.0081 1.4572,-1.5349 0.2815,-0.313 0.5406,-0.6438 0.8118,-0.9651 0.2102,0.0891 0.4318,0.1488 0.6584,0.1771 1.6131,0.2714 3.1333,0.9401 4.4235,1.9458 1.078,0.8619 2.6507,0.6867 3.5126,-0.3913 0.862,-1.078 0.6868,-2.6506 -0.3912,-3.5126 -0.0023,-0.0018 -0.0046,-0.0037 -0.0069,-0.0055 -1.4853,-1.1692 -3.1808,-2.043 -4.9948,-2.574 0.7006,-1.1041 1.3655,-2.2307 1.9543,-3.399 0.5148,-1.0224 0.9672,-2.072 1.3907,-3.1329 0.3159,0.0888 0.6463,0.1144 0.972,0.0753 1.3111,-0.0788 2.6225,0.1487 3.8305,0.6643 1.2743,0.5307 2.7376,-0.0722 3.2682,-1.3465 0.5307,-1.2743 -0.0722,-2.7376 -1.3465,-3.2683 -1.6227,-0.6785 -3.3599,-1.0414 -5.1186,-1.0693 0.1471,-0.5805 0.2988,-1.16 0.4192,-1.7469 0.4187,-2.0538 0.6742,-4.1376 0.7643,-6.2316 z m -5.6605,5.2273 c -0.6122,2.9787 -1.6153,5.8635 -2.9835,8.5794 -1.3935,2.7635 -3.1486,5.3292 -5.2192,7.6296 -0.4133,0.4589 -0.8386,0.9069 -1.2758,1.3441 -1.8375,1.8384 -3.8744,3.4661 -6.0727,4.8531 -5.5274,3.4904 -11.9325,5.339 -18.4696,5.3303 -6.0561,0.0053 -10.9698,-4.8999 -10.9752,-10.956 -0.0052,-6.0561 4.8999,-10.9698 10.956,-10.975 0.0064,0 0.0128,0 0.0192,0 7.0643,-0.0068 12.7892,-5.7321 12.7955,-12.7964 0,-6.0562 4.9096,-10.9657 10.9658,-10.9657 6.0561,0 10.9657,4.9095 10.9657,10.9657 4e-4,2.3481 -0.2362,4.6903 -0.7062,6.9909 z"
             fill="#009e73"
             transform="matrix(0,1,1.00025,0,373,326.92)"
             id="path143" />
          <path
             d="m 53.4593,26.567 c 0,-1.4894 -1.2074,-2.6967 -2.6967,-2.6967 -1.4893,0 -2.6966,1.2073 -2.6966,2.6967 0,1.4891 1.207,2.6964 2.6962,2.6967 1.4887,-0.0016 2.6953,-1.208 2.6971,-2.6967 z"
             fill="#009e73"
             transform="matrix(0,1,1.00025,0,373,326.92)"
             id="path145" />
          <path
             d="m 54.8839,33.1437 c -1.4892,-1e-4 -2.6965,1.2071 -2.6967,2.6963 -10e-5,1.4893 1.2071,2.6965 2.6963,2.6967 1.4893,10e-5 2.6965,-1.2071 2.6967,-2.6963 0,-1e-4 0,-3e-4 0,-4e-4 -0.0017,-1.4884 -1.2079,-2.6945 -2.6963,-2.6963 z"
             fill="#009e73"
             transform="matrix(0,1,1.00025,0,373,326.92)"
             id="path147" />
          <path
             d="m 45.6105,36.2346 c -1.4893,3e-4 -2.6965,1.2077 -2.6963,2.6971 2e-4,1.4893 1.2077,2.6965 2.6971,2.6963 1.4892,-2e-4 2.6963,-1.2075 2.6963,-2.6967 -0.0017,-1.4888 -1.2083,-2.6952 -2.6971,-2.6967 z"
             fill="#009e73"
             transform="matrix(0,1,1.00025,0,373,326.92)"
             id="path149" />
          <path
             d="m 47.277,49.2348 c 0,1.4892 -1.2073,2.6964 -2.6965,2.6964 -1.4892,0 -2.6965,-1.2072 -2.6965,-2.6964 0,-1.4893 1.2073,-2.6965 2.6965,-2.6965 1.4892,0 2.6965,1.2072 2.6965,2.6965 z"
             fill="#009e73"
             transform="matrix(0,1,1.00025,0,373,326.92)"
             id="path151" />
          <path
             d="m 36.9735,47.1739 c 0,1.4893 -1.2073,2.6965 -2.6965,2.6965 -1.4892,0 -2.6965,-1.2072 -2.6965,-2.6965 0,-1.4892 1.2073,-2.6964 2.6965,-2.6964 1.4892,0 2.6965,1.2072 2.6965,2.6964 z"
             fill="#009e73"
             transform="matrix(0,1,1.00025,0,373,326.92)"
             id="path153" />
          <path
             d="m 28.0953,51.6898 c -1.4894,-2e-4 -2.6969,1.207 -2.6972,2.6963 -2e-4,1.4894 1.207,2.6969 2.6963,2.6971 1.4893,2e-4 2.6969,-1.2069 2.6971,-2.6963 0,-10e-5 0,-2e-4 0,-4e-4 -0.0018,-1.4884 -1.2078,-2.6947 -2.6962,-2.6967 z"
             fill="#009e73"
             transform="matrix(0,1,1.00025,0,373,326.92)"
             id="path155" />
        </g>
      </g>
    </g>
  </g>
</svg>
